<svg width="219" height="220" viewBox="0 0 219 220" fill="none" xmlns="http://www.w3.org/2000/svg">
<path d="M162.768 43.5434C162.768 41.2401 161.539 39.1118 159.544 37.9601L112.609 10.8637C110.614 9.71209 108.157 9.71209 106.162 10.8637L82.7111 24.4022C81.7462 24.9528 81.7427 26.3425 82.7048 26.898L92.7964 32.724C94.7912 33.8756 97.2489 33.8756 99.2437 32.724L107.774 27.7996C108.771 27.2237 110 27.2237 110.997 27.7996L145.683 47.8239C146.68 48.3997 147.294 49.4638 147.294 50.6155V88.5765C147.294 90.8798 148.523 93.0081 150.518 94.1597L157.933 98.4402C160.082 99.6809 162.768 98.13 162.768 95.6486V43.5434Z" fill="#696969"/>
<path d="M193.762 123.181C195.756 122.029 196.985 119.901 196.985 117.598V63.4049C196.985 61.1017 195.756 58.9733 193.762 57.8217L170.311 44.2832C169.352 43.723 168.146 44.4148 168.146 45.5257V59.0388C168.146 60.1904 168.761 61.2546 169.758 61.8304L179.9 67.6854C180.897 68.2612 181.512 69.3254 181.512 70.477V108.665C181.512 110.968 180.283 113.096 178.288 114.248L145.411 133.228C144.413 133.804 143.799 134.868 143.799 136.02V146.442C143.799 148.923 146.485 150.474 148.634 149.234L193.762 123.181Z" fill="#696969"/>
<path d="M140.394 189.554C142.389 190.706 144.846 190.706 146.841 189.554L193.776 162.458C195.771 161.306 197 159.178 197 156.875V129.798C197.006 128.687 195.804 127.989 194.842 128.544L183.138 135.301C182.141 135.877 181.526 136.941 181.526 138.092V149.802C181.526 150.954 180.912 152.018 179.915 152.594L145.229 172.618C144.232 173.194 143.003 173.194 142.006 172.618L109.128 153.638C107.134 152.486 104.676 152.486 102.681 153.638L95.2667 157.918C93.1175 159.159 93.1175 162.261 95.2666 163.502L140.394 189.554Z" fill="#696969"/>
<path d="M56.2605 176.457C56.2605 178.76 57.4893 180.888 59.4842 182.04L106.419 209.136C108.414 210.288 110.872 210.288 112.867 209.136L136.317 195.598C137.282 195.047 137.286 193.657 136.323 193.102L124.62 186.345C123.623 185.77 122.394 185.77 121.396 186.345L111.255 192.2C110.257 192.776 109.028 192.776 108.031 192.2L73.346 172.176C72.3486 171.6 71.7341 170.536 71.7341 169.385V131.424C71.7341 129.12 70.5053 126.992 68.5105 125.84L61.096 121.56C58.9469 120.319 56.2605 121.87 56.2605 124.351V176.457Z" fill="#696969"/>
<path d="M25.2478 96.9119C23.253 98.0635 22.0242 100.192 22.0242 102.495L22.0242 156.688C22.0242 158.991 23.253 161.12 25.2478 162.271L48.6985 175.81C49.6578 176.37 50.8632 175.678 50.8632 174.567V161.054C50.8632 159.902 50.2488 158.838 49.2514 158.262L39.1096 152.407C38.1122 151.832 37.4978 150.767 37.4978 149.616V109.567C37.4978 108.416 38.1122 107.351 39.1096 106.776L73.5986 86.8646C74.596 86.2887 75.2104 85.2246 75.2104 84.0729V73.6509C75.2104 71.1694 72.5241 69.6185 70.3749 70.8593L25.2478 96.9119Z" fill="#696969"/>
<path d="M78.6062 30.6932C76.6114 29.5416 74.1536 29.5416 72.1588 30.6932L25.2237 57.7896C23.2289 58.9413 22 61.0696 22 63.3729L22 90.4498C21.9944 91.5606 23.1963 92.2586 24.1584 91.7031L35.8618 84.9466C36.8592 84.3708 37.4737 83.3066 37.4737 82.155V70.445C37.4737 69.2933 38.0881 68.2292 39.0855 67.6534L73.7707 47.6291C74.7681 47.0532 75.9969 47.0532 76.9943 47.6291L109.871 66.6096C111.866 67.7612 114.324 67.7612 116.319 66.6096L123.733 62.3291C125.882 61.0884 125.882 57.9866 123.733 56.7459L78.6062 30.6932Z" fill="#696969"/>
</svg>
