<svg width="814" height="220" viewBox="0 0 814 220" fill="none" xmlns="http://www.w3.org/2000/svg">
<path d="M162.768 43.5434C162.768 41.2401 161.539 39.1118 159.544 37.9601L112.609 10.8637C110.614 9.71209 108.157 9.71209 106.162 10.8637L82.7111 24.4022C81.7462 24.9528 81.7427 26.3425 82.7048 26.898L92.7964 32.724C94.7912 33.8756 97.2489 33.8756 99.2437 32.724L107.774 27.7996C108.771 27.2237 110 27.2237 110.997 27.7996L145.683 47.8239C146.68 48.3997 147.294 49.4638 147.294 50.6155V88.5765C147.294 90.8798 148.523 93.0081 150.518 94.1597L157.933 98.4402C160.082 99.6809 162.768 98.13 162.768 95.6486V43.5434Z" fill="black"/>
<path d="M193.762 123.181C195.756 122.029 196.985 119.901 196.985 117.598V63.4048C196.985 61.1016 195.756 58.9732 193.762 57.8216L170.311 44.2831C169.352 43.7229 168.146 44.4147 168.146 45.5256V59.0387C168.146 60.1903 168.761 61.2545 169.758 61.8303L179.9 67.6853C180.897 68.2611 181.512 69.3253 181.512 70.4769V108.665C181.512 110.968 180.283 113.096 178.288 114.248L145.411 133.228C144.413 133.804 143.799 134.868 143.799 136.02V146.442C143.799 148.923 146.485 150.474 148.634 149.234L193.762 123.181Z" fill="black"/>
<path d="M140.394 189.554C142.389 190.706 144.846 190.706 146.841 189.554L193.776 162.458C195.771 161.306 197 159.178 197 156.875V129.798C197.006 128.687 195.804 127.989 194.842 128.544L183.138 135.301C182.141 135.877 181.526 136.941 181.526 138.092V149.802C181.526 150.954 180.912 152.018 179.915 152.594L145.229 172.618C144.232 173.194 143.003 173.194 142.006 172.618L109.128 153.638C107.134 152.486 104.676 152.486 102.681 153.638L95.2667 157.918C93.1175 159.159 93.1175 162.261 95.2666 163.502L140.394 189.554Z" fill="black"/>
<path d="M56.2603 176.457C56.2603 178.76 57.4891 180.888 59.484 182.04L106.419 209.136C108.414 210.288 110.872 210.288 112.866 209.136L136.317 195.598C137.282 195.047 137.286 193.657 136.323 193.102L124.62 186.345C123.623 185.77 122.394 185.77 121.396 186.345L111.255 192.2C110.257 192.776 109.028 192.776 108.031 192.2L73.3458 172.176C72.3484 171.6 71.7339 170.536 71.7339 169.385V131.424C71.7339 129.12 70.5051 126.992 68.5103 125.84L61.0958 121.56C58.9467 120.319 56.2603 121.87 56.2603 124.351V176.457Z" fill="black"/>
<path d="M25.2476 96.9119C23.2528 98.0635 22.0239 100.192 22.0239 102.495L22.0239 156.688C22.0239 158.991 23.2528 161.12 25.2476 162.271L48.6983 175.81C49.6576 176.37 50.863 175.678 50.863 174.567V161.054C50.863 159.902 50.2486 158.838 49.2512 158.262L39.1094 152.407C38.112 151.832 37.4976 150.767 37.4976 149.616V109.567C37.4976 108.416 38.112 107.351 39.1094 106.776L73.5984 86.8646C74.5958 86.2887 75.2102 85.2246 75.2102 84.0729V73.6509C75.2102 71.1694 72.5239 69.6185 70.3747 70.8593L25.2476 96.9119Z" fill="black"/>
<path d="M78.6062 30.6932C76.6114 29.5416 74.1536 29.5416 72.1588 30.6932L25.2237 57.7896C23.2289 58.9413 22 61.0696 22 63.3729L22 90.4498C21.9944 91.5606 23.1963 92.2586 24.1584 91.7031L35.8618 84.9466C36.8592 84.3708 37.4737 83.3066 37.4737 82.155V70.445C37.4737 69.2933 38.0881 68.2292 39.0855 67.6534L73.7707 47.6291C74.7681 47.0532 75.9969 47.0532 76.9943 47.6291L109.871 66.6096C111.866 67.7612 114.324 67.7612 116.319 66.6096L123.733 62.3291C125.882 61.0884 125.882 57.9866 123.733 56.7459L78.6062 30.6932Z" fill="black"/>
<path d="M379.392 166.18C379.392 168.01 377.903 169.494 376.066 169.494H365.861C364.025 169.494 362.535 168.01 362.535 166.18V83.2561C362.535 83.0661 362.381 82.912 362.19 82.912C362.051 82.912 361.925 82.9956 361.871 83.1239L327.043 166.556C326.527 167.792 325.316 168.597 323.973 168.597H314.758C313.416 168.597 312.205 167.793 311.688 166.559L276.779 83.1237C276.726 82.9955 276.6 82.912 276.46 82.912C276.27 82.912 276.115 83.0661 276.115 83.2562V166.18C276.115 168.01 274.626 169.494 272.789 169.494H262.667C260.83 169.494 259.341 168.01 259.341 166.18V55.1645C259.341 53.334 260.83 51.85 262.667 51.85H278.411C279.758 51.85 280.973 52.6601 281.486 53.9016L318.912 144.407C318.988 144.59 319.167 144.71 319.366 144.71C319.565 144.71 319.745 144.59 319.82 144.407L357.165 53.9039C357.678 52.6612 358.893 51.85 360.241 51.85H376.066C377.903 51.85 379.392 53.334 379.392 55.1645V166.18Z" fill="black"/>
<path d="M399.258 201.453C398.425 201.453 396.483 201.395 394.771 201.297C393.172 201.204 392.022 199.888 392.022 198.292V191.018C392.022 188.864 394.095 187.07 396.257 187.097C396.835 187.104 397.364 187.104 397.778 187.104C405.931 187.104 410.28 183.804 413.003 175.353C413.105 175.039 413.189 174.714 413.28 174.396C413.562 173.412 414.245 171.179 414.556 170.134C414.667 169.765 414.649 169.391 414.517 169.028L385.088 88.1721C384.302 86.0109 385.908 83.7273 388.215 83.7273H400.268C401.723 83.7273 403.007 84.668 403.442 86.0502L424.629 153.398C424.651 153.468 424.716 153.514 424.789 153.514C424.863 153.514 424.928 153.468 424.95 153.398L446.136 86.0502C446.571 84.668 447.857 83.7273 449.31 83.7273H460.889C463.19 83.7273 464.796 86.0015 464.019 88.1608L433.136 173.978C425.735 194.768 417.266 201.453 399.258 201.453Z" fill="black"/>
<path d="M531.857 167.299C531.384 168.616 530.13 169.494 528.727 169.494H513.262C511.857 169.494 510.605 168.616 510.132 167.299L470.17 56.2838C469.393 54.1244 470.999 51.85 473.301 51.85H486.155C487.588 51.85 488.861 52.7652 489.311 54.1211L520.793 148.716C520.84 148.855 520.97 148.949 521.118 148.949C521.264 148.949 521.395 148.855 521.442 148.716L553.005 54.1187C553.456 52.764 554.728 51.85 556.16 51.85H568.687C570.989 51.85 572.595 54.1244 571.818 56.2838L531.857 167.299Z" fill="black"/>
<path d="M594.266 157.02C606.682 157.02 616.385 148.542 616.385 137.372V134.13C616.385 132.22 614.769 130.705 612.856 130.822L595.088 131.91C584.481 132.644 578.478 137.291 578.478 144.628C578.478 152.129 584.728 157.02 594.266 157.02ZM589.333 170.962C572.394 170.962 560.553 160.527 560.553 145.118C560.553 130.117 572.147 120.904 592.704 119.762L613.254 118.56C615.013 118.457 616.385 117.006 616.385 115.251V111.773C616.385 102.234 609.889 96.5271 599.035 96.5271C589.973 96.5271 583.914 100.33 581.537 106.483C580.969 107.954 579.645 109.082 578.063 109.082H567.55C565.631 109.082 564.09 107.458 564.452 105.579C567.093 91.9016 579.961 82.1782 599.693 82.1782C620.661 82.1782 634.064 93.1845 634.064 110.387V166.18C634.064 168.01 632.575 169.494 630.738 169.494H620.369C618.532 169.494 617.043 168.01 617.043 166.18V155.646C617.043 155.504 616.928 155.39 616.787 155.39C616.692 155.39 616.604 155.443 616.56 155.527C611.511 164.986 600.625 170.962 589.333 170.962Z" fill="black"/>
<path d="M713.754 83.7273C715.591 83.7273 717.08 85.2113 717.08 87.0419V166.179C717.08 168.01 715.591 169.494 713.754 169.494H703.385C701.548 169.494 700.06 168.01 700.06 166.179V155.232C700.06 155.094 699.947 154.983 699.808 154.983C699.711 154.983 699.621 155.039 699.58 155.128C694.795 165.31 686.018 171.044 672.842 171.044C654.012 171.044 642.501 158.895 642.501 139.248V87.0419C642.501 85.2113 643.989 83.7273 645.827 83.7273H656.936C658.772 83.7273 660.261 85.2113 660.261 87.0419V135.823C660.261 148.868 666.51 155.879 678.763 155.879C691.589 155.879 699.32 147.074 699.32 133.704V87.0419C699.32 85.2113 700.808 83.7273 702.645 83.7273H713.754Z" fill="black"/>
<path d="M730.24 169.494C728.404 169.494 726.915 168.01 726.915 166.18V55.1645C726.915 53.334 728.404 51.85 730.24 51.85H741.35C743.187 51.85 744.676 53.334 744.676 55.1645V166.18C744.676 168.01 743.187 169.494 741.35 169.494H730.24Z" fill="black"/>
<path d="M759.69 55.9309C759.69 54.1003 761.179 52.6163 763.016 52.6163H774.207C776.044 52.6163 777.533 54.1003 777.533 55.9309V83.7273H790.654C792.49 83.7273 793.979 85.2113 793.979 87.0419V94.3539C793.979 96.1845 792.49 97.6685 790.654 97.6685H777.533V144.955C777.533 152.374 780.823 155.716 788.059 155.716C788.576 155.716 789.18 155.703 789.808 155.678C791.922 155.595 793.896 157.296 793.896 159.404V166.658C793.896 168.181 792.852 169.5 791.335 169.679C789.289 169.92 786.66 170.065 784.029 170.065C766.515 170.065 759.69 163.461 759.69 146.911V100.983C759.69 99.1525 761.179 97.6685 763.016 97.6685H777.533V83.7273H763.016C761.179 83.7273 759.69 82.2433 759.69 80.4127V55.9309Z" fill="black"/>
</svg>
