<svg width="814" height="220" viewBox="0 0 814 220" fill="none" xmlns="http://www.w3.org/2000/svg">
<path d="M162.768 43.5434C162.768 41.2401 161.539 39.1118 159.544 37.9601L112.609 10.8637C110.614 9.71209 108.157 9.71209 106.162 10.8637L82.7111 24.4022C81.7462 24.9528 81.7427 26.3425 82.7048 26.898L92.7964 32.724C94.7912 33.8756 97.2489 33.8756 99.2437 32.724L107.774 27.7996C108.771 27.2237 110 27.2237 110.997 27.7996L145.683 47.8239C146.68 48.3997 147.294 49.4638 147.294 50.6155V88.5765C147.294 90.8798 148.523 93.0081 150.518 94.1597L157.933 98.4402C160.082 99.6809 162.768 98.13 162.768 95.6486V43.5434Z" fill="#FBFAF5"/>
<path d="M193.762 123.181C195.756 122.029 196.985 119.901 196.985 117.598V63.4048C196.985 61.1016 195.756 58.9732 193.762 57.8216L170.311 44.2831C169.352 43.7229 168.146 44.4147 168.146 45.5256V59.0387C168.146 60.1903 168.761 61.2545 169.758 61.8303L179.9 67.6853C180.897 68.2611 181.512 69.3253 181.512 70.4769V108.665C181.512 110.968 180.283 113.096 178.288 114.248L145.411 133.228C144.413 133.804 143.799 134.868 143.799 136.02V146.442C143.799 148.923 146.485 150.474 148.634 149.234L193.762 123.181Z" fill="#FBFAF5"/>
<path d="M140.394 189.554C142.389 190.706 144.846 190.706 146.841 189.554L193.776 162.458C195.771 161.306 197 159.178 197 156.875V129.798C197.006 128.687 195.804 127.989 194.842 128.544L183.138 135.301C182.141 135.877 181.526 136.941 181.526 138.092V149.802C181.526 150.954 180.912 152.018 179.915 152.594L145.229 172.618C144.232 173.194 143.003 173.194 142.006 172.618L109.128 153.638C107.134 152.486 104.676 152.486 102.681 153.638L95.2667 157.918C93.1175 159.159 93.1175 162.261 95.2666 163.502L140.394 189.554Z" fill="#FBFAF5"/>
<path d="M56.2605 176.457C56.2605 178.76 57.4893 180.888 59.4842 182.04L106.419 209.136C108.414 210.288 110.872 210.288 112.867 209.136L136.317 195.598C137.282 195.047 137.286 193.657 136.323 193.102L124.62 186.345C123.623 185.77 122.394 185.77 121.396 186.345L111.255 192.2C110.257 192.776 109.028 192.776 108.031 192.2L73.346 172.176C72.3486 171.6 71.7341 170.536 71.7341 169.385V131.424C71.7341 129.12 70.5053 126.992 68.5105 125.84L61.096 121.56C58.9469 120.319 56.2605 121.87 56.2605 124.351V176.457Z" fill="#FBFAF5"/>
<path d="M25.2478 96.9119C23.253 98.0635 22.0242 100.192 22.0242 102.495L22.0242 156.688C22.0242 158.991 23.253 161.12 25.2478 162.271L48.6985 175.81C49.6578 176.37 50.8632 175.678 50.8632 174.567V161.054C50.8632 159.902 50.2488 158.838 49.2514 158.262L39.1096 152.407C38.1122 151.832 37.4978 150.767 37.4978 149.616V109.567C37.4978 108.416 38.1122 107.351 39.1096 106.776L73.5986 86.8646C74.596 86.2887 75.2104 85.2246 75.2104 84.0729V73.6509C75.2104 71.1694 72.5241 69.6185 70.3749 70.8593L25.2478 96.9119Z" fill="#FBFAF5"/>
<path d="M78.6062 30.6932C76.6114 29.5416 74.1536 29.5416 72.1588 30.6932L25.2237 57.7896C23.2289 58.9413 22 61.0696 22 63.3729L22 90.4498C21.9944 91.5606 23.1963 92.2586 24.1584 91.7031L35.8618 84.9466C36.8592 84.3708 37.4737 83.3066 37.4737 82.155V70.445C37.4737 69.2933 38.0881 68.2292 39.0855 67.6534L73.7707 47.6291C74.7681 47.0532 75.9969 47.0532 76.9943 47.6291L109.871 66.6096C111.866 67.7612 114.324 67.7612 116.319 66.6096L123.733 62.3291C125.882 61.0884 125.882 57.9866 123.733 56.7459L78.6062 30.6932Z" fill="#FBFAF5"/>
<path d="M379.392 164.18C379.392 166.01 377.903 167.494 376.066 167.494H365.861C364.024 167.494 362.535 166.01 362.535 164.18V81.2561C362.535 81.0661 362.381 80.912 362.19 80.912C362.051 80.912 361.925 80.9956 361.871 81.1239L327.043 164.556C326.527 165.792 325.316 166.597 323.973 166.597H314.758C313.416 166.597 312.205 165.793 311.688 164.559L276.779 81.1237C276.725 80.9955 276.6 80.912 276.46 80.912C276.27 80.912 276.115 81.0661 276.115 81.2562V164.18C276.115 166.01 274.626 167.494 272.789 167.494H262.666C260.83 167.494 259.341 166.01 259.341 164.18V53.1645C259.341 51.334 260.83 49.85 262.666 49.85H278.411C279.758 49.85 280.972 50.6601 281.486 51.9016L318.912 142.407C318.988 142.59 319.167 142.71 319.366 142.71C319.565 142.71 319.745 142.59 319.82 142.407L357.165 51.9039C357.678 50.6612 358.893 49.85 360.241 49.85H376.066C377.903 49.85 379.392 51.334 379.392 53.1645V164.18Z" fill="#FBFAF5"/>
<path d="M399.258 199.453C398.425 199.453 396.483 199.395 394.771 199.297C393.172 199.204 392.022 197.888 392.022 196.292V189.018C392.022 186.864 394.095 185.07 396.257 185.097C396.835 185.104 397.364 185.104 397.777 185.104C405.931 185.104 410.28 181.804 413.003 173.353C413.105 173.039 413.189 172.714 413.28 172.396C413.562 171.412 414.244 169.179 414.556 168.134C414.667 167.765 414.649 167.391 414.517 167.028L385.088 86.1721C384.302 84.0109 385.908 81.7273 388.215 81.7273H400.268C401.722 81.7273 403.007 82.668 403.442 84.0502L424.629 151.398C424.651 151.468 424.716 151.514 424.789 151.514C424.863 151.514 424.928 151.468 424.95 151.398L446.136 84.0502C446.571 82.668 447.857 81.7273 449.31 81.7273H460.889C463.19 81.7273 464.796 84.0015 464.019 86.1608L433.135 171.978C425.735 192.768 417.266 199.453 399.258 199.453Z" fill="#FBFAF5"/>
<path d="M531.857 165.299C531.383 166.616 530.13 167.494 528.727 167.494H513.261C511.857 167.494 510.605 166.616 510.131 165.299L470.17 54.2838C469.393 52.1244 470.999 49.85 473.301 49.85H486.155C487.588 49.85 488.861 50.7652 489.311 52.1211L520.793 146.716C520.84 146.855 520.97 146.949 521.117 146.949C521.264 146.949 521.395 146.855 521.442 146.716L553.005 52.1187C553.456 50.764 554.728 49.85 556.16 49.85H568.687C570.989 49.85 572.595 52.1244 571.818 54.2838L531.857 165.299Z" fill="#FBFAF5"/>
<path d="M594.266 155.02C606.682 155.02 616.385 146.542 616.385 135.372V132.13C616.385 130.22 614.769 128.705 612.856 128.822L595.088 129.91C584.481 130.644 578.478 135.291 578.478 142.628C578.478 150.129 584.728 155.02 594.266 155.02ZM589.333 168.962C572.394 168.962 560.553 158.527 560.553 143.118C560.553 128.117 572.147 118.904 592.704 117.762L613.254 116.56C615.013 116.457 616.385 115.006 616.385 113.251V109.773C616.385 100.234 609.889 94.5271 599.035 94.5271C589.973 94.5271 583.914 98.3301 581.537 104.483C580.969 105.954 579.645 107.082 578.063 107.082H567.55C565.631 107.082 564.09 105.458 564.452 103.579C567.093 89.9016 579.961 80.1782 599.693 80.1782C620.661 80.1782 634.064 91.1845 634.064 108.387V164.18C634.064 166.01 632.575 167.494 630.738 167.494H620.369C618.532 167.494 617.043 166.01 617.043 164.18V153.646C617.043 153.504 616.928 153.39 616.787 153.39C616.692 153.39 616.604 153.443 616.56 153.527C611.511 162.986 600.625 168.962 589.333 168.962Z" fill="#FBFAF5"/>
<path d="M713.754 81.7273C715.591 81.7273 717.08 83.2113 717.08 85.0419V164.179C717.08 166.01 715.591 167.494 713.754 167.494H703.385C701.548 167.494 700.06 166.01 700.06 164.179V153.232C700.06 153.094 699.947 152.983 699.808 152.983C699.711 152.983 699.621 153.039 699.58 153.128C694.795 163.31 686.018 169.044 672.842 169.044C654.012 169.044 642.501 156.895 642.501 137.248V85.0419C642.501 83.2113 643.989 81.7273 645.827 81.7273H656.936C658.772 81.7273 660.261 83.2113 660.261 85.0419V133.823C660.261 146.868 666.51 153.879 678.763 153.879C691.589 153.879 699.32 145.074 699.32 131.704V85.0419C699.32 83.2113 700.808 81.7273 702.645 81.7273H713.754Z" fill="#FBFAF5"/>
<path d="M730.24 167.494C728.404 167.494 726.914 166.01 726.914 164.18V53.1645C726.914 51.334 728.404 49.85 730.24 49.85H741.35C743.187 49.85 744.676 51.334 744.676 53.1645V164.18C744.676 166.01 743.187 167.494 741.35 167.494H730.24Z" fill="#FBFAF5"/>
<path d="M759.69 53.9309C759.69 52.1003 761.179 50.6163 763.015 50.6163H774.207C776.044 50.6163 777.533 52.1003 777.533 53.9309V81.7273H790.653C792.49 81.7273 793.979 83.2113 793.979 85.0419V92.3539C793.979 94.1845 792.49 95.6685 790.653 95.6685H777.533V142.955C777.533 150.374 780.823 153.716 788.059 153.716C788.576 153.716 789.18 153.703 789.807 153.678C791.922 153.595 793.896 155.296 793.896 157.404V164.658C793.896 166.181 792.852 167.5 791.334 167.679C789.289 167.92 786.659 168.065 784.029 168.065C766.515 168.065 759.69 161.461 759.69 144.911V98.983C759.69 97.1525 761.179 95.6685 763.015 95.6685H777.533V81.7273H763.015C761.179 81.7273 759.69 80.2433 759.69 78.4127V53.9309Z" fill="#FBFAF5"/>
</svg>
