<svg width="563" height="167" viewBox="0 0 563 167" fill="none" xmlns="http://www.w3.org/2000/svg">
<path d="M128.392 122.68C128.392 124.51 126.903 125.994 125.066 125.994H114.861C113.025 125.994 111.535 124.51 111.535 122.68V39.7561C111.535 39.5661 111.381 39.412 111.19 39.412C111.051 39.412 110.925 39.4956 110.871 39.6239L76.0433 123.056C75.5274 124.292 74.316 125.097 72.9727 125.097H63.7581C62.4158 125.097 61.205 124.293 60.6885 123.059L25.7792 39.6237C25.7256 39.4955 25.5998 39.412 25.4604 39.412C25.2698 39.412 25.1151 39.5661 25.1151 39.7562V122.68C25.1151 124.51 23.6261 125.994 21.7893 125.994H11.6666C9.82981 125.994 8.34082 124.51 8.34082 122.68V11.6645C8.34082 9.83395 9.82981 8.34998 11.6666 8.34998H27.411C28.7583 8.34998 29.9726 9.1601 30.4859 10.4016L67.9122 100.907C67.988 101.09 68.1673 101.21 68.3662 101.21C68.5653 101.21 68.7447 101.09 68.8204 100.907L106.165 10.4039C106.678 9.16118 107.893 8.34998 109.241 8.34998H125.066C126.903 8.34998 128.392 9.83395 128.392 11.6645V122.68Z" fill="#FBFAF5"/>
<path d="M148.258 157.953C147.425 157.953 145.483 157.895 143.771 157.797C142.172 157.704 141.022 156.388 141.022 154.792V147.518C141.022 145.364 143.095 143.57 145.257 143.597C145.835 143.604 146.364 143.604 146.778 143.604C154.931 143.604 159.28 140.304 162.003 131.853C162.105 131.539 162.189 131.214 162.28 130.896C162.562 129.912 163.245 127.679 163.556 126.634C163.667 126.265 163.649 125.891 163.517 125.528L134.088 44.6721C133.302 42.5109 134.908 40.2273 137.215 40.2273H149.268C150.723 40.2273 152.007 41.168 152.442 42.5502L173.629 109.898C173.651 109.968 173.716 110.014 173.789 110.014C173.863 110.014 173.928 109.968 173.95 109.898L195.136 42.5502C195.571 41.168 196.857 40.2273 198.31 40.2273H209.889C212.19 40.2273 213.796 42.5015 213.019 44.6608L182.136 130.478C174.735 151.268 166.266 157.953 148.258 157.953Z" fill="#FBFAF5"/>
<path d="M280.857 123.799C280.384 125.116 279.13 125.994 277.727 125.994H262.262C260.857 125.994 259.605 125.116 259.132 123.799L219.17 12.7838C218.393 10.6244 219.999 8.34998 222.301 8.34998H235.155C236.588 8.34998 237.861 9.26519 238.311 10.6211L269.793 105.216C269.84 105.355 269.97 105.449 270.118 105.449C270.264 105.449 270.395 105.355 270.442 105.216L302.005 10.6187C302.456 9.26402 303.728 8.34998 305.16 8.34998H317.687C319.989 8.34998 321.595 10.6244 320.818 12.7838L280.857 123.799Z" fill="#FBFAF5"/>
<path d="M343.266 113.52C355.682 113.52 365.385 105.042 365.385 93.8725V90.6302C365.385 88.7197 363.769 87.2047 361.856 87.3219L344.088 88.4101C333.481 89.1439 327.478 93.7909 327.478 101.128C327.478 108.629 333.728 113.52 343.266 113.52ZM338.333 127.462C321.394 127.462 309.553 117.027 309.553 101.618C309.553 86.6166 321.147 77.4039 341.704 76.2625L362.254 75.0598C364.013 74.9569 365.385 73.506 365.385 71.7509V68.2728C365.385 58.734 358.889 53.0271 348.035 53.0271C338.973 53.0271 332.914 56.8301 330.537 62.9829C329.969 64.4539 328.645 65.5824 327.063 65.5824H316.55C314.631 65.5824 313.09 63.9578 313.452 62.079C316.093 48.4016 328.961 38.6782 348.693 38.6782C369.661 38.6782 383.064 49.6845 383.064 66.8868V122.68C383.064 124.51 381.575 125.994 379.738 125.994H369.369C367.532 125.994 366.043 124.51 366.043 122.68V112.146C366.043 112.004 365.928 111.89 365.787 111.89C365.692 111.89 365.604 111.943 365.56 112.027C360.511 121.486 349.625 127.462 338.333 127.462Z" fill="#FBFAF5"/>
<path d="M462.754 40.2273C464.591 40.2273 466.08 41.7113 466.08 43.5419V122.679C466.08 124.51 464.591 125.994 462.754 125.994H452.385C450.548 125.994 449.06 124.51 449.06 122.679V111.732C449.06 111.594 448.947 111.483 448.808 111.483C448.711 111.483 448.621 111.539 448.58 111.628C443.795 121.81 435.018 127.544 421.842 127.544C403.012 127.544 391.501 115.395 391.501 95.7476V43.5419C391.501 41.7113 392.989 40.2273 394.827 40.2273H405.936C407.772 40.2273 409.261 41.7113 409.261 43.5419V92.3235C409.261 105.368 415.51 112.379 427.763 112.379C440.589 112.379 448.32 103.574 448.32 90.2037V43.5419C448.32 41.7113 449.808 40.2273 451.645 40.2273H462.754Z" fill="#FBFAF5"/>
<path d="M479.24 125.994C477.404 125.994 475.915 124.51 475.915 122.68V11.6645C475.915 9.83395 477.404 8.34998 479.24 8.34998H490.35C492.187 8.34998 493.676 9.83395 493.676 11.6645V122.68C493.676 124.51 492.187 125.994 490.35 125.994H479.24Z" fill="#FBFAF5"/>
<path d="M508.69 12.4309C508.69 10.6003 510.179 9.11633 512.016 9.11633H523.207C525.044 9.11633 526.533 10.6003 526.533 12.4309V40.2273H539.654C541.49 40.2273 542.979 41.7113 542.979 43.5419V50.8539C542.979 52.6845 541.49 54.1685 539.654 54.1685H526.533V101.455C526.533 108.874 529.823 112.216 537.059 112.216C537.576 112.216 538.18 112.203 538.808 112.178C540.922 112.095 542.896 113.796 542.896 115.904V123.158C542.896 124.681 541.852 126 540.335 126.179C538.289 126.42 535.66 126.565 533.029 126.565C515.515 126.565 508.69 119.961 508.69 103.411V57.483C508.69 55.6525 510.179 54.1685 512.016 54.1685H526.533V40.2273H512.016C510.179 40.2273 508.69 38.7433 508.69 36.9127V12.4309Z" fill="#FBFAF5"/>
</svg>
