<svg xmlns="http://www.w3.org/2000/svg" width="960" height="470" viewBox="0 0 960 470">
<defs>
    <linearGradient id="g_mist" x1="0" y1="0" x2="0" y2="1"><stop offset="0.00%" stop-color="#FBF5F5"/><stop offset="50.00%" stop-color="#F2F0F0"/><stop offset="75.00%" stop-color="#E6DDDD"/><stop offset="100.00%" stop-color="#DAD2DF"/></linearGradient>
    <linearGradient id="g_primary" x1="0" y1="0" x2="0" y2="1"><stop offset="0.00%" stop-color="#EFEBF5"/><stop offset="65.00%" stop-color="#E0E8E6"/></linearGradient>
    <linearGradient id="g_warm" x1="0" y1="0" x2="0" y2="1"><stop offset="0.00%" stop-color="#FBF5F5"/><stop offset="52.00%" stop-color="#F2F2F0"/><stop offset="78.00%" stop-color="#E6DDDD"/><stop offset="100.00%" stop-color="#E7DCD4"/></linearGradient>
    <linearGradient id="g_greydient" x1="0" y1="0" x2="0" y2="1"><stop offset="0.00%" stop-color="#FBF7F5"/><stop offset="45.00%" stop-color="#FAF6F5"/><stop offset="75.00%" stop-color="#E0D2CE"/><stop offset="100.00%" stop-color="#9FBCBC"/></linearGradient>
  </defs>
<rect x="0.5" y="0.5" width="959" height="469" fill="url(#g_greydient)" stroke="#DDDCD6" stroke-width="1"/>
<text x="40" y="80" font-family="PT Serif" font-size="40" font-weight="400" fill="#000000">Setup completion by guidance level</text><text x="40" y="112" font-family="Lato" font-size="14" font-weight="400" fill="#696969">Percentage of new users who finished the full onboarding checklist.</text>
<path d="M 100 239 A 100 100 0 1 1 300 239 L 288 239 A 88 88 0 1 0 112 239 Z" fill="#DDDCD6"/><path d="M 300 239 A 100 100 0 1 1 100 239 L 112 239 A 88 88 0 1 0 288 239 Z" fill="#DDDCD6"/><path d="M 200 139 A 100 100 0 0 1 218.7381314585725 337.2287250728689 L 216.48955568354378 325.4412780641246 A 88 88 0 0 0 200 151 Z" fill="#E75247"/><text x="200" y="253" text-anchor="middle" font-family="PT Serif" font-size="40" font-weight="400" fill="#000000">47%</text><text x="200" y="369" text-anchor="middle" font-family="Lato" font-size="14" font-weight="400" fill="#000000">Without MyVault</text><path d="M 380 239 A 100 100 0 1 1 580 239 L 568 239 A 88 88 0 1 0 392 239 Z" fill="#DDDCD6"/><path d="M 580 239 A 100 100 0 1 1 380 239 L 392 239 A 88 88 0 1 0 568 239 Z" fill="#DDDCD6"/><path d="M 480 139 A 100 100 0 1 1 467.46667664356954 338.21147013144775 L 468.9706754463412 326.306093715674 A 88 88 0 1 0 480 151 Z" fill="#4D80E6"/><text x="480" y="253" text-anchor="middle" font-family="PT Serif" font-size="40" font-weight="400" fill="#000000">52%</text><text x="480" y="369" text-anchor="middle" font-family="Lato" font-size="14" font-weight="400" fill="#000000">With assistance</text><path d="M 660 239 A 100 100 0 1 1 860 239 L 848 239 A 88 88 0 1 0 672 239 Z" fill="#DDDCD6"/><path d="M 860 239 A 100 100 0 1 1 660 239 L 672 239 A 88 88 0 1 0 848 239 Z" fill="#DDDCD6"/><path d="M 760 139 A 100 100 0 1 1 747.4666766435695 139.78852986855222 L 748.9706754463411 151.69390628432598 A 88 88 0 1 0 760 151 Z" fill="#69DE49"/><text x="760" y="253" text-anchor="middle" font-family="PT Serif" font-size="40" font-weight="400" fill="#000000">98%</text><text x="760" y="369" text-anchor="middle" font-family="Lato" font-size="14" font-weight="400" fill="#000000">Fully set up</text>
<line x1="40" y1="396" x2="920" y2="396" stroke="#DDDCD6" stroke-width="1"/><circle cx="43" cy="421" r="3" fill="#000000"/><text x="56" y="425" text-anchor="start" font-family="Lato" font-size="12" font-weight="400" fill="#696969">Source: MyVault onboarding cohort, Q1 2026</text>
</svg>